<svg xmlns="http://www.w3.org/2000/svg" xmlns:xlink="http://www.w3.org/1999/xlink" width="193" height="193" viewBox="0 0 193 193">
  <defs>
    <linearGradient id="linear-gradient" x1="0.5" x2="0.5" y2="1" gradientUnits="objectBoundingBox">
      <stop offset="0" stop-color="#006a4e"/>
      <stop offset="1" stop-color="#f42a41"/>
    </linearGradient>
    <filter id="Union_16" x="16.004" y="15.878" width="160.942" height="166.516" filterUnits="userSpaceOnUse">
      <feOffset dy="3" input="SourceAlpha"/>
      <feGaussianBlur stdDeviation="3" result="blur"/>
      <feFlood flood-opacity="0.161"/>
      <feComposite operator="in" in2="blur"/>
      <feComposite in="SourceGraphic"/>
    </filter>
  </defs>
  <g id="Group_37" data-name="Group 37" transform="translate(-133 -57)">
    <g id="Group_36" data-name="Group 36" transform="translate(133 57)">
      <rect id="Rectangle_3" data-name="Rectangle 3" width="193" height="193" rx="40" fill="url(#linear-gradient)"/>
      <g transform="matrix(1, 0, 0, 1, 0, 0)" filter="url(#Union_16)">
        <path id="Union_16-2" data-name="Union 16" d="M.073,62.966A28.48,28.48,0,0,1,8.3,44.35c8.309-8.473,24.8-15.834,55.863-1.456,0,0-60.131-4.173-42.314,42.377,0,0,14.846,41.093,71.265,63.244C93.113,148.516-3.012,126.223.073,62.966ZM92.3,138.427c-29.561-10.436-37.33-23.675-37.33-23.675,10.9,6.8,24.239,11.727,32.062,14.291a13.9,13.9,0,0,0,12.833-2.11c16.787-13.171,23.307-35.813,23.307-35.813q.256-.934.487-1.841C136.864,37.486,91.18,49.845,91.18,49.845c-34.452,7.323-34.1,38.278-34.1,38.278-5.39-13.876-1.74-25,3.524-32.825A45.18,45.18,0,0,1,81.41,38.877c25.265-10.138,63.558-4.133,61.449,28.1-2.505,38.258-28.081,61.385-39.356,69.793a11.985,11.985,0,0,1-7.16,2.349A12.154,12.154,0,0,1,92.3,138.427ZM92.574,13.4a13.249,13.249,0,0,1,26.478,0,13.249,13.249,0,0,1-26.478,0Zm-80.15-.674A12.992,12.992,0,0,1,25.663,0,12.991,12.991,0,0,1,38.9,12.729,12.992,12.992,0,0,1,25.663,25.458,12.992,12.992,0,0,1,12.424,12.729Z" transform="translate(25 21.88)" fill="#fff"/>
      </g>
    </g>
  </g>
</svg>
